<mxfile host="app.diagrams.net" modified="2024-05-12T06:59:38.749Z" agent="Mozilla/5.0 (Windows NT 10.0; Win64; x64) AppleWebKit/537.36 (KHTML, like Gecko) Chrome/124.0.0.0 Safari/537.36" etag="zG1Yw3PZ9myjpq0K76hc" version="24.2.8" type="github">
  <diagram id="prtHgNgQTEPvFCAcTncT" name="Page-1">
    <mxGraphModel dx="1080" dy="1595" grid="1" gridSize="10" guides="1" tooltips="1" connect="1" arrows="1" fold="1" page="1" pageScale="1" pageWidth="827" pageHeight="1169" math="0" shadow="0">
      <root>
        <mxCell id="0" />
        <mxCell id="1" parent="0" />
        <mxCell id="_O55r5vdvxGi-Q6iG4ze-5" value="" style="rounded=1;whiteSpace=wrap;html=1;" vertex="1" parent="1">
          <mxGeometry x="60" y="-60" width="840" height="510" as="geometry" />
        </mxCell>
        <mxCell id="_O55r5vdvxGi-Q6iG4ze-1" value="" style="rounded=1;whiteSpace=wrap;html=1;" vertex="1" parent="1">
          <mxGeometry x="130" y="30" width="170" height="280" as="geometry" />
        </mxCell>
        <mxCell id="_O55r5vdvxGi-Q6iG4ze-2" value="Camunda Environment" style="text;html=1;align=center;verticalAlign=middle;resizable=0;points=[];autosize=1;strokeColor=none;fillColor=none;" vertex="1" parent="1">
          <mxGeometry x="140" width="150" height="30" as="geometry" />
        </mxCell>
        <mxCell id="_O55r5vdvxGi-Q6iG4ze-3" value="" style="rounded=1;whiteSpace=wrap;html=1;" vertex="1" parent="1">
          <mxGeometry x="640" y="30" width="170" height="280" as="geometry" />
        </mxCell>
        <mxCell id="_O55r5vdvxGi-Q6iG4ze-4" value="IBM BAW Environment" style="text;html=1;align=center;verticalAlign=middle;resizable=0;points=[];autosize=1;strokeColor=none;fillColor=none;" vertex="1" parent="1">
          <mxGeometry x="650" width="150" height="30" as="geometry" />
        </mxCell>
        <mxCell id="_O55r5vdvxGi-Q6iG4ze-7" value="" style="rounded=1;whiteSpace=wrap;html=1;" vertex="1" parent="1">
          <mxGeometry x="390" y="30" width="160" height="280" as="geometry" />
        </mxCell>
        <mxCell id="_O55r5vdvxGi-Q6iG4ze-8" value="BPM Integration Layer" style="text;html=1;align=center;verticalAlign=middle;resizable=0;points=[];autosize=1;strokeColor=none;fillColor=none;" vertex="1" parent="1">
          <mxGeometry x="400" width="140" height="30" as="geometry" />
        </mxCell>
        <mxCell id="_O55r5vdvxGi-Q6iG4ze-10" value="" style="shape=image;verticalLabelPosition=bottom;labelBackgroundColor=default;verticalAlign=top;aspect=fixed;imageAspect=0;image=https://miro.medium.com/v2/resize:fit:600/1*ljHUhFnaBissdRBe7DIo6g.png;" vertex="1" parent="1">
          <mxGeometry x="422.38" y="60" width="95.24" height="50" as="geometry" />
        </mxCell>
        <mxCell id="_O55r5vdvxGi-Q6iG4ze-12" value="" style="shape=image;verticalLabelPosition=bottom;labelBackgroundColor=default;verticalAlign=top;aspect=fixed;imageAspect=0;image=https://upload.wikimedia.org/wikipedia/en/thumb/3/30/Java_programming_language_logo.svg/1200px-Java_programming_language_logo.svg.png;" vertex="1" parent="1">
          <mxGeometry x="450.87" y="130" width="38.27" height="70" as="geometry" />
        </mxCell>
      </root>
    </mxGraphModel>
  </diagram>
</mxfile>
